HIERARCHY
ROOT hip
{
  OFFSET 0 90.174 2.4664
  CHANNELS 6 Xposition Yposition Zposition Zrotation Xrotation Yrotation
  JOINT abdomen
  {
    OFFSET 0 -1.186 -1.5018
    CHANNELS 6 Xposition Yposition Zposition Zrotation Xrotation Yrotation
    JOINT abdomen2
    {
      OFFSET 0 9.964 0.2134
      CHANNELS 6 Xposition Yposition Zposition Zrotation Xrotation Yrotation
      JOINT chest
      {
        OFFSET 0 13.134 -3.2573
        CHANNELS 6 Xposition Yposition Zposition Zrotation Xrotation Yrotation
        JOINT neck
        {
          OFFSET 0 20.686 -1.6905
          CHANNELS 6 Xposition Yposition Zposition Zrotation Xrotation Yrotation
          JOINT head
          {
            OFFSET 0 7.238 -0.1237
            CHANNELS 6 Xposition Yposition Zposition Zrotation Xrotation Yrotation
            End Site
            {
              OFFSET 0 0 0
            }
          }
        }
        JOINT lCollar
        {
          OFFSET 1.7069 20.075 5.0056
          CHANNELS 6 Xposition Yposition Zposition Zrotation Xrotation Yrotation
          JOINT lShldr
          {
            OFFSET 13.6458 -0.047 -4.849
            CHANNELS 6 Xposition Yposition Zposition Zrotation Xrotation Yrotation
            JOINT lForeArm
            {
              OFFSET 28.3255 -0.9759 2.2888
              CHANNELS 6 Xposition Yposition Zposition Zrotation Xrotation Yrotation
              JOINT lHand
              {
                OFFSET 22.1583 -0.53 10.8316
                CHANNELS 6 Xposition Yposition Zposition Zrotation Xrotation Yrotation
                JOINT lThumb1
                {
                  OFFSET 0.786 0.112 2.5817
                  CHANNELS 6 Xposition Yposition Zposition Zrotation Xrotation Yrotation
                  JOINT lThumb2
                  {
                    OFFSET 0.3601 -0.878 4.2331
                    CHANNELS 6 Xposition Yposition Zposition Zrotation Xrotation Yrotation
                    JOINT lThumb2_End
                    {
                      OFFSET 1.8127 -1.216 2.2227
                      CHANNELS 6 Xposition Yposition Zposition Zrotation Xrotation Yrotation
                      End Site
                      {
                        OFFSET 0.0181 -0.0122 0.0222
                      }
                    }
                  }
                }
                JOINT lCarpal1
                {
                  OFFSET 0.9571 1.114 1.7695
                  CHANNELS 6 Xposition Yposition Zposition Zrotation Xrotation Yrotation
                  JOINT lIndex1
                  {
                    OFFSET 4.1246 0.487 4.1451
                    CHANNELS 6 Xposition Yposition Zposition Zrotation Xrotation Yrotation
                    JOINT lIndex2
                    {
                      OFFSET 3.4052 -1.454 2.7682
                      CHANNELS 6 Xposition Yposition Zposition Zrotation Xrotation Yrotation
                      JOINT lIndex2_End
                      {
                        OFFSET 1.4531 -1.795 1.2713
                        CHANNELS 6 Xposition Yposition Zposition Zrotation Xrotation Yrotation
                        End Site
                        {
                          OFFSET 0.0145 -0.0179 0.0127
                        }
                      }
                    }
                  }
                  JOINT lMid1
                  {
                    OFFSET 5.6954 0.21 2.1184
                    CHANNELS 6 Xposition Yposition Zposition Zrotation Xrotation Yrotation
                    JOINT lMid2
                    {
                      OFFSET 3.9766 -1.54 2.3863
                      CHANNELS 6 Xposition Yposition Zposition Zrotation Xrotation Yrotation
                      JOINT lMid2_End
                      {
                        OFFSET 1.4042 -1.926 1.125
                        CHANNELS 6 Xposition Yposition Zposition Zrotation Xrotation Yrotation
                        End Site
                        {
                          OFFSET 0.014 -0.0193 0.0113
                        }
                      }
                    }
                  }
                }
                JOINT lCarpal2
                {
                  OFFSET 2.0956 0.66 -0.3894
                  CHANNELS 6 Xposition Yposition Zposition Zrotation Xrotation Yrotation
                  JOINT lRing1
                  {
                    OFFSET 5.0395 -0.09 2.4971
                    CHANNELS 6 Xposition Yposition Zposition Zrotation Xrotation Yrotation
                    JOINT lRing2
                    {
                      OFFSET 3.7921 -1.552 1.4806
                      CHANNELS 6 Xposition Yposition Zposition Zrotation Xrotation Yrotation
                      JOINT lRing2_End
                      {
                        OFFSET 1.4655 -1.808 0.9609
                        CHANNELS 6 Xposition Yposition Zposition Zrotation Xrotation Yrotation
                        End Site
                        {
                          OFFSET 0.0147 -0.0181 0.0096
                        }
                      }
                    }
                  }
                  JOINT lPinky1
                  {
                    OFFSET 4.9141 -1.269 0.3591
                    CHANNELS 6 Xposition Yposition Zposition Zrotation Xrotation Yrotation
                    JOINT lPinky2
                    {
                      OFFSET 3.1477 -1.685 0.8462
                      CHANNELS 6 Xposition Yposition Zposition Zrotation Xrotation Yrotation
                      JOINT lPinky2_End
                      {
                        OFFSET 0.8055 -1.585 0.7955
                        CHANNELS 6 Xposition Yposition Zposition Zrotation Xrotation Yrotation
                        End Site
                        {
                          OFFSET 0.0081 -0.0158 0.008
                        }
                      }
                    }
                  }
                }
              }
            }
          }
        }
        JOINT rCollar
        {
          OFFSET -1.7069 20.075 5.0056
          CHANNELS 6 Xposition Yposition Zposition Zrotation Xrotation Yrotation
          JOINT rShldr
          {
            OFFSET -13.6458 -0.047 -4.849
            CHANNELS 6 Xposition Yposition Zposition Zrotation Xrotation Yrotation
            JOINT rForeArm
            {
              OFFSET -28.3255 -0.9759 2.2888
              CHANNELS 6 Xposition Yposition Zposition Zrotation Xrotation Yrotation
              JOINT rHand
              {
                OFFSET -22.1583 -0.53 10.8316
                CHANNELS 6 Xposition Yposition Zposition Zrotation Xrotation Yrotation
                JOINT rThumb1
                {
                  OFFSET -0.786 0.112 2.5817
                  CHANNELS 6 Xposition Yposition Zposition Zrotation Xrotation Yrotation
                  JOINT rThumb2
                  {
                    OFFSET -0.3601 -0.878 4.2331
                    CHANNELS 6 Xposition Yposition Zposition Zrotation Xrotation Yrotation
                    JOINT rThumb2_End
                    {
                      OFFSET -1.8127 -1.216 2.2227
                      CHANNELS 6 Xposition Yposition Zposition Zrotation Xrotation Yrotation
                      End Site
                      {
                        OFFSET -0.0181 -0.0122 0.0222
                      }
                    }
                  }
                }
                JOINT rCarpal1
                {
                  OFFSET -0.9571 1.114 1.7695
                  CHANNELS 6 Xposition Yposition Zposition Zrotation Xrotation Yrotation
                  JOINT rIndex1
                  {
                    OFFSET -4.1246 0.487 4.1451
                    CHANNELS 6 Xposition Yposition Zposition Zrotation Xrotation Yrotation
                    JOINT rIndex2
                    {
                      OFFSET -3.4052 -1.454 2.7682
                      CHANNELS 6 Xposition Yposition Zposition Zrotation Xrotation Yrotation
                      JOINT rIndex2_End
                      {
                        OFFSET -1.4531 -1.795 1.2713
                        CHANNELS 6 Xposition Yposition Zposition Zrotation Xrotation Yrotation
                        End Site
                        {
                          OFFSET -0.0145 -0.018 0.0127
                        }
                      }
                    }
                  }
                  JOINT rMid1
                  {
                    OFFSET -5.6954 0.21 2.1184
                    CHANNELS 6 Xposition Yposition Zposition Zrotation Xrotation Yrotation
                    JOINT rMid2
                    {
                      OFFSET -3.9766 -1.54 2.3863
                      CHANNELS 6 Xposition Yposition Zposition Zrotation Xrotation Yrotation
                      JOINT rMid2_End
                      {
                        OFFSET -1.4042 -1.926 1.125
                        CHANNELS 6 Xposition Yposition Zposition Zrotation Xrotation Yrotation
                        End Site
                        {
                          OFFSET -0.014 -0.0193 0.0113
                        }
                      }
                    }
                  }
                }
                JOINT rCarpal2
                {
                  OFFSET -2.0956 0.66 -0.3894
                  CHANNELS 6 Xposition Yposition Zposition Zrotation Xrotation Yrotation
                  JOINT rRing1
                  {
                    OFFSET -5.0395 -0.09 2.4971
                    CHANNELS 6 Xposition Yposition Zposition Zrotation Xrotation Yrotation
                    JOINT rRing2
                    {
                      OFFSET -3.7921 -1.552 1.4806
                      CHANNELS 6 Xposition Yposition Zposition Zrotation Xrotation Yrotation
                      JOINT rRing2_End
                      {
                        OFFSET -1.4655 -1.808 0.9609
                        CHANNELS 6 Xposition Yposition Zposition Zrotation Xrotation Yrotation
                        End Site
                        {
                          OFFSET -0.0147 -0.0181 0.0096
                        }
                      }
                    }
                  }
                  JOINT rPinky1
                  {
                    OFFSET -4.9141 -1.269 0.3592
                    CHANNELS 6 Xposition Yposition Zposition Zrotation Xrotation Yrotation
                    JOINT rPinky2
                    {
                      OFFSET -3.1477 -1.685 0.8462
                      CHANNELS 6 Xposition Yposition Zposition Zrotation Xrotation Yrotation
                      JOINT rPinky2_End
                      {
                        OFFSET -0.8055 -1.585 0.7955
                        CHANNELS 6 Xposition Yposition Zposition Zrotation Xrotation Yrotation
                        End Site
                        {
                          OFFSET -0.0081 -0.0158 0.008
                        }
                      }
                    }
                  }
                }
              }
            }
          }
        }
      }
    }
  }
  JOINT lThigh
  {
    OFFSET 8.367 -8.2066 0.5982
    CHANNELS 6 Xposition Yposition Zposition Zrotation Xrotation Yrotation
    JOINT lShin
    {
      OFFSET 2.1923 -43.463 -0.4932
      CHANNELS 6 Xposition Yposition Zposition Zrotation Xrotation Yrotation
      JOINT lFoot
      {
        OFFSET 0.7333 -45.8593 -2.6451
        CHANNELS 6 Xposition Yposition Zposition Zrotation Xrotation Yrotation
        End Site
        {
          OFFSET 2.6618 -4.2699 12.3931
        }
      }
    }
  }
  JOINT rThigh
  {
    OFFSET -8.367 -8.2066 0.5982
    CHANNELS 6 Xposition Yposition Zposition Zrotation Xrotation Yrotation
    JOINT rShin
    {
      OFFSET -2.1923 -43.463 -0.4931
      CHANNELS 6 Xposition Yposition Zposition Zrotation Xrotation Yrotation
      JOINT rFoot
      {
        OFFSET -0.7333 -45.8593 -2.6451
        CHANNELS 6 Xposition Yposition Zposition Zrotation Xrotation Yrotation
        End Site
        {
          OFFSET -2.6618 -4.2699 12.3931
        }
      }
    }
  }
}
MOTION
Frames:	4
Frame Time:	0.0333333
0 90.174 2.4664 0 0 -0 0 -1.186 -1.5018 0 0 -0 0 9.964 0.2134 0 0 -0 0 13.134 -3.2573 0 0 -0 0 20.686 -1.6905 0 0 -0 0 7.238 -0.1237 0 0 -0 1.7069 20.075 5.0056 0 0 -0 13.6458 -0.047 -4.849 1.66051 0.0835086 5.75766 28.3255 -0.9759 2.2888 -0.0175111 0.895433 15.7816 22.1583 -0.53 10.8316 7.95139e-016 -1.98785e-016 -0 0.786 0.112 2.5817 5.46658e-016 -3.97569e-016 -0 0.3601 -0.878 4.2331 5.96354e-016 0 -0 1.8127 -1.216 2.2227 3.97569e-016 1.98785e-016 9.54166e-015 0.9571 1.114 1.7695 1.49089e-016 -3.97569e-016 -0 4.1246 0.487 4.1451 6.4605e-016 0 3.18055e-015 3.4052 -1.454 2.7682 5.96354e-016 0 3.18055e-015 1.4531 -1.795 1.2713 8.94531e-016 -1.98785e-016 6.36111e-015 5.6954 0.21 2.1184 6.4605e-016 0 3.18055e-015 3.9766 -1.54 2.3863 5.96354e-016 0 3.18055e-015 1.4042 -1.926 1.125 8.94531e-016 -1.98785e-016 6.36111e-015 2.0956 0.66 -0.3894 1.49089e-016 -3.97569e-016 -0 5.0395 -0.09 2.4971 6.4605e-016 0 3.18055e-015 3.7921 -1.552 1.4806 5.96354e-016 0 3.18055e-015 1.4655 -1.808 0.9609 8.94531e-016 -1.98785e-016 6.36111e-015 4.9141 -1.269 0.3591 6.4605e-016 0 3.18055e-015 3.1477 -1.685 0.8462 5.96354e-016 0 3.18055e-015 0.8055 -1.585 0.7955 8.94531e-016 -1.98785e-016 6.36111e-015 -1.7069 20.075 5.0056 0 0 -0 -13.6458 -0.047 -4.849 -1.4496 0.0636048 -5.0245 -28.3255 -0.9759 2.2888 -1.74811 1.20616 -16.8394 -22.1583 -0.53 10.8316 -1.19271e-015 1.98785e-016 -3.18055e-015 -0.786 0.112 2.5817 -3.97569e-016 1.98785e-016 -3.18055e-015 -0.3601 -0.878 4.2331 -2.98177e-016 1.98785e-016 -3.18055e-015 -1.8127 -1.216 2.2227 -2.98177e-016 3.97569e-016 -0 -0.9571 1.114 1.7695 4.96962e-016 0 -6.36111e-015 -4.1246 0.487 4.1451 -9.93923e-017 3.97569e-016 -0 -3.4052 -1.454 2.7682 -8.94531e-016 5.96354e-016 -0 -1.4531 -1.795 1.2713 -3.97569e-016 3.97569e-016 -0 -5.6954 0.21 2.1184 -9.93923e-017 3.97569e-016 -0 -3.9766 -1.54 2.3863 -8.94531e-016 5.96354e-016 -0 -1.4042 -1.926 1.125 -3.97569e-016 3.97569e-016 -0 -2.0956 0.66 -0.3894 4.96962e-016 0 -6.36111e-015 -5.0395 -0.09 2.4971 -9.93923e-017 3.97569e-016 -0 -3.7921 -1.552 1.4806 -8.94531e-016 5.96354e-016 -0 -1.4655 -1.808 0.9609 -3.97569e-016 3.97569e-016 -0 -4.9141 -1.269 0.3592 -9.93923e-017 3.97569e-016 -0 -3.1477 -1.685 0.8462 -8.94531e-016 5.96354e-016 -0 -0.8055 -1.585 0.7955 -3.97569e-016 3.97569e-016 -0 8.367 -8.2066 0.5982 -4.66115 -1.03232 0.120763 2.1923 -43.463 -0.4932 0.00990601 1.55097 0.177175 0.7333 -45.8593 -2.6451 4.65196 -0.54114 -0.255042 -8.367 -8.2066 0.5982 4.66115 -1.03222 -0.120763 -2.1923 -43.463 -0.4931 -0.00990459 1.5509 -0.177176 -0.7333 -45.8593 -2.6451 -4.65196 -0.541171 0.255041 
42.4758 -1.31045 69.5588 0 70.9971 -0 0 -1.186 -1.5018 -0.256891 3.1546 -0.171296 0 9.964 0.2134 -0.505471 6.30994 -0.32915 -7.10543e-015 13.134 -3.2573 -0.505471 6.30992 -0.32915 0 20.686 -1.6905 -1.21757e-006 -24.0063 2.46026e-007 0 7.238 -0.1237 -0.0600574 -22.3427 -0.0243369 1.7069 20.075 5.0056 -5.15815 -0.268712 1.80657 13.6458 -0.047 -4.849 -63.3829 -35.1969 -51.8268 28.3255 -0.9759 2.2888 44.2819 -38.2524 -46.8603 22.1583 -0.53 10.8316 -3.82919 9.2555 -0.448157 0.786 0.112 2.5817 -5.96354e-016 3.97569e-016 -6.36111e-015 0.3601 -0.878 4.2331 -1.2583e-008 -2.86336e-008 1.62215e-006 1.8127 -1.216 2.2227 5.96354e-016 0 -6.36111e-015 0.9571 1.114 1.7695 -1.98785e-016 3.97569e-016 -6.36111e-015 4.1246 0.487 4.1451 3.97252e-031 -1.19271e-015 1.90833e-014 3.4052 -1.454 2.7682 -1.2583e-008 -2.86336e-008 1.62215e-006 1.4531 -1.795 1.2713 -1.98785e-016 7.95139e-016 3.18055e-015 5.6954 0.21 2.1184 3.97252e-031 -1.19271e-015 1.90833e-014 3.9766 -1.54 2.3863 -1.2583e-008 -2.86336e-008 1.62215e-006 1.4042 -1.926 1.125 -1.98785e-016 7.95139e-016 3.18055e-015 2.0956 0.66 -0.3894 -1.98785e-016 3.97569e-016 -6.36111e-015 5.0395 -0.09 2.4971 3.97252e-031 -1.19271e-015 1.90833e-014 3.7921 -1.552 1.4806 -1.2583e-008 -2.86336e-008 1.62215e-006 1.4655 -1.808 0.9609 -1.98785e-016 7.95139e-016 3.18055e-015 4.9141 -1.269 0.3591 3.97252e-031 -1.19271e-015 1.90833e-014 3.1477 -1.685 0.8462 -1.2583e-008 -2.86336e-008 1.62215e-006 0.8055 -1.585 0.7955 -1.98785e-016 7.95139e-016 3.18055e-015 -1.7069 20.075 5.0056 9.01819 -0.30524 -3.13526 -13.6458 -0.047 -4.849 64.8114 -30.1955 43.726 -28.3255 -0.9759 2.2888 -48.5641 -42.9937 44.0178 -22.1583 -0.53 10.8316 3.75111 9.26136 0.697104 -0.786 0.112 2.5817 -1.39149e-015 1.19271e-015 -3.18055e-015 -0.3601 -0.878 4.2331 -1.78906e-015 1.98785e-015 -6.36111e-015 -1.8127 -1.216 2.2227 0 0 -3.18055e-015 -0.9571 1.114 1.7695 -5.96354e-016 1.19271e-015 -3.18055e-015 -4.1246 0.487 4.1451 -5.96354e-016 -3.97569e-016 3.18055e-015 -3.4052 -1.454 2.7682 1.98785e-016 7.95139e-016 -6.36111e-015 -1.4531 -1.795 1.2713 -5.96354e-016 1.98785e-015 -6.36111e-015 -5.6954 0.21 2.1184 -5.96354e-016 -3.97569e-016 3.18055e-015 -3.9766 -1.54 2.3863 1.98785e-016 7.95139e-016 -6.36111e-015 -1.4042 -1.926 1.125 -5.96354e-016 1.98785e-015 -6.36111e-015 -2.0956 0.66 -0.3894 -5.96354e-016 1.19271e-015 -3.18055e-015 -5.0395 -0.09 2.4971 -5.96354e-016 -3.97569e-016 3.18055e-015 -3.7921 -1.552 1.4806 1.98785e-016 7.95139e-016 -6.36111e-015 -1.4655 -1.808 0.9609 -5.96354e-016 1.98785e-015 -6.36111e-015 -4.9141 -1.269 0.3592 -5.96354e-016 -3.97569e-016 3.18055e-015 -3.1477 -1.685 0.8462 1.98785e-016 7.95139e-016 -6.36111e-015 -0.8055 -1.585 0.7955 -5.96354e-016 1.98785e-015 -6.36111e-015 8.367 -8.2066 0.5982 27.6481 14.2413 48.1021 2.1923 -43.463 -0.4932 -6.65229 8.40785 19.8379 0.7333 -45.8593 -2.6451 12.5494 52.829 -19.4226 -8.367 -8.2066 0.5982 -33.9645 10.8316 -48.239 -2.1923 -43.463 -0.4931 6.86939 15.1636 -19.59 -0.7333 -45.8593 -2.6451 -13.0115 53.8513 21.1019 
42.4758 -1.34957 69.618 0 71.4413 -0 0 -1.186 -1.5018 -0.259476 3.01728 -0.17397 -7.10543e-015 9.964 0.2134 -0.510827 6.03531 -0.33493 7.10543e-015 13.134 -3.2573 -0.510827 6.03526 -0.33493 -7.10543e-015 20.686 -1.6905 6.96672e-006 -24.395 4.84013e-006 0 7.238 -0.1237 -0.059852 -21.9541 -0.0238807 1.7069 20.075 5.0056 -4.18647 0.15128 1.33282 13.6458 -0.047 -4.849 -62.8772 -35.8501 -49.5536 28.3255 -0.9759 2.2888 44.3882 -38.5097 -47.2888 22.1583 -0.53 10.8316 -3.79657 7.60494 0.320789 0.786 0.112 2.5817 3.97569e-016 3.97569e-016 3.18055e-015 0.3601 -0.878 4.2331 7.4975e-008 -1.99794e-007 3.62327e-009 1.8127 -1.216 2.2227 -1.98785e-016 -9.93923e-016 -1.59028e-014 0.9571 1.114 1.7695 3.97569e-016 3.97569e-016 3.18055e-015 4.1246 0.487 4.1451 -1.98785e-016 -3.97569e-016 1.27222e-014 3.4052 -1.454 2.7682 7.4975e-008 -1.99794e-007 3.62327e-009 1.4531 -1.795 1.2713 -3.97569e-016 -5.96354e-016 -1.59028e-014 5.6954 0.21 2.1184 -1.98785e-016 -3.97569e-016 1.27222e-014 3.9766 -1.54 2.3863 7.4975e-008 -1.99794e-007 3.62327e-009 1.4042 -1.926 1.125 -3.97569e-016 -5.96354e-016 -1.59028e-014 2.0956 0.66 -0.3894 3.97569e-016 3.97569e-016 3.18055e-015 5.0395 -0.09 2.4971 -1.98785e-016 -3.97569e-016 1.27222e-014 3.7921 -1.552 1.4806 7.4975e-008 -1.99794e-007 3.62327e-009 1.4655 -1.808 0.9609 -3.97569e-016 -5.96354e-016 -1.59028e-014 4.9141 -1.269 0.3591 -1.98785e-016 -3.97569e-016 1.27222e-014 3.1477 -1.685 0.8462 7.4975e-008 -1.99794e-007 3.62327e-009 0.8055 -1.585 0.7955 -3.97569e-016 -5.96354e-016 -1.59028e-014 -1.7069 20.075 5.0056 8.59756 -0.399494 -3.37824 -13.6458 -0.047 -4.849 64.8155 -30.1266 42.7495 -28.3255 -0.9759 2.2888 -48.5879 -43.0835 44.3632 -22.1583 -0.53 10.8316 3.98788 8.62939 0.469565 -0.786 0.112 2.5817 -3.97569e-016 -1.19271e-015 9.54166e-015 -0.3601 -0.878 4.2331 1.98785e-015 -7.95139e-016 3.18055e-015 -1.8127 -1.216 2.2227 9.93923e-016 -1.19271e-015 3.18055e-015 -0.9571 1.114 1.7695 -3.97569e-016 3.97569e-016 9.54166e-015 -4.1246 0.487 4.1451 2.78299e-015 -2.38542e-015 3.18055e-015 -3.4052 -1.454 2.7682 9.93923e-016 -1.19271e-015 9.54166e-015 -1.4531 -1.795 1.2713 1.19271e-015 -3.97569e-016 3.18055e-015 -5.6954 0.21 2.1184 2.78299e-015 -2.38542e-015 3.18055e-015 -3.9766 -1.54 2.3863 9.93923e-016 -1.19271e-015 9.54166e-015 -1.4042 -1.926 1.125 1.19271e-015 -3.97569e-016 3.18055e-015 -2.0956 0.66 -0.3894 -3.97569e-016 3.97569e-016 9.54166e-015 -5.0395 -0.09 2.4971 2.78299e-015 -2.38542e-015 3.18055e-015 -3.7921 -1.552 1.4806 9.93923e-016 -1.19271e-015 9.54166e-015 -1.4655 -1.808 0.9609 1.19271e-015 -3.97569e-016 3.18055e-015 -4.9141 -1.269 0.3592 2.78299e-015 -2.38542e-015 3.18055e-015 -3.1477 -1.685 0.8462 9.93923e-016 -1.19271e-015 9.54166e-015 -0.8055 -1.585 0.7955 1.19271e-015 -3.97569e-016 3.18055e-015 8.367 -8.2066 0.5982 27.4234 13.9381 48.0944 2.1923 -43.463 -0.4932 -6.6251 8.00592 19.8698 0.7333 -45.8593 -2.6451 12.4215 53.0463 -19.1678 -8.367 -8.2066 0.5982 -33.786 10.5091 -48.2487 -2.1923 -43.463 -0.4931 6.86128 14.8735 -19.6258 -0.7333 -45.8593 -2.6451 -12.7998 54.0103 20.7987 
42.4758 -1.38864 69.6768 0 71.8857 -0 0 -1.186 -1.5018 -0.262069 2.8797 -0.17662 -7.10543e-015 9.964 0.2134 -0.516215 5.76017 -0.340677 0 13.134 -3.2573 -0.516215 5.76017 -0.340677 7.10543e-015 20.686 -1.6905 -1.25311e-006 -24.7838 -8.80375e-007 1.42109e-014 7.238 -0.1237 -0.0596507 -21.5654 -0.0234263 1.7069 20.075 5.0056 -3.20969 0.56392 0.851194 13.6458 -0.047 -4.849 -62.3327 -36.4896 -47.2431 28.3255 -0.9759 2.2888 44.4925 -38.7678 -47.7183 22.1583 -0.53 10.8316 -3.74153 5.94813 1.09122 0.786 0.112 2.5817 1.98785e-016 7.95139e-016 6.36111e-015 0.3601 -0.878 4.2331 -1.65521e-031 9.93923e-016 9.54166e-015 1.8127 -1.216 2.2227 1.98785e-016 1.19271e-015 9.54166e-015 0.9571 1.114 1.7695 1.98785e-016 0 6.36111e-015 4.1246 0.487 4.1451 7.95139e-016 1.98785e-016 2.54444e-014 3.4052 -1.454 2.7682 1.98785e-016 1.39149e-015 6.36111e-015 1.4531 -1.795 1.2713 -3.08973e-031 1.39149e-015 1.27222e-014 5.6954 0.21 2.1184 7.95139e-016 1.98785e-016 2.54444e-014 3.9766 -1.54 2.3863 1.98785e-016 1.39149e-015 6.36111e-015 1.4042 -1.926 1.125 -3.08973e-031 1.39149e-015 1.27222e-014 2.0956 0.66 -0.3894 1.98785e-016 0 6.36111e-015 5.0395 -0.09 2.4971 7.95139e-016 1.98785e-016 2.54444e-014 3.7921 -1.552 1.4806 1.98785e-016 1.39149e-015 6.36111e-015 1.4655 -1.808 0.9609 -3.08973e-031 1.39149e-015 1.27222e-014 4.9141 -1.269 0.3591 7.95139e-016 1.98785e-016 2.54444e-014 3.1477 -1.685 0.8462 1.98785e-016 1.39149e-015 6.36111e-015 0.8055 -1.585 0.7955 -3.08973e-031 1.39149e-015 1.27222e-014 -1.7069 20.075 5.0056 8.1764 -0.491897 -3.62201 -13.6458 -0.047 -4.849 64.8209 -30.0577 41.7725 -28.3255 -0.9759 2.2888 -48.611 -43.1734 44.7091 -22.1583 -0.53 10.8316 4.22187 7.99612 0.244895 -0.786 0.112 2.5817 2.0891e-007 -3.05581e-007 -2.62074e-006 -0.3601 -0.878 4.2331 -1.98785e-016 -1.19271e-015 -9.54166e-015 -1.8127 -1.216 2.2227 -3.31403e-007 -1.02682e-007 2.60222e-006 -0.9571 1.114 1.7695 -5.96354e-016 0 3.18055e-015 -4.1246 0.487 4.1451 2.0891e-007 -3.05581e-007 -2.62074e-006 -3.4052 -1.454 2.7682 1.59028e-015 3.97569e-016 -9.54166e-015 -1.4531 -1.795 1.2713 -3.31403e-007 -1.02682e-007 2.60222e-006 -5.6954 0.21 2.1184 2.0891e-007 -3.05581e-007 -2.62074e-006 -3.9766 -1.54 2.3863 1.59028e-015 3.97569e-016 -9.54166e-015 -1.4042 -1.926 1.125 -3.31403e-007 -1.02682e-007 2.60222e-006 -2.0956 0.66 -0.3894 -5.96354e-016 0 3.18055e-015 -5.0395 -0.09 2.4971 2.0891e-007 -3.05581e-007 -2.62074e-006 -3.7921 -1.552 1.4806 1.59028e-015 3.97569e-016 -9.54166e-015 -1.4655 -1.808 0.9609 -3.31403e-007 -1.02682e-007 2.60222e-006 -4.9141 -1.269 0.3592 2.0891e-007 -3.05581e-007 -2.62074e-006 -3.1477 -1.685 0.8462 1.59028e-015 3.97569e-016 -9.54166e-015 -0.8055 -1.585 0.7955 -3.31403e-007 -1.02682e-007 2.60222e-006 8.367 -8.2066 0.5982 27.1981 13.6345 48.0856 2.1923 -43.463 -0.4932 -6.59601 7.60287 19.9013 0.7333 -45.8593 -2.6451 12.2907 53.2642 -18.9106 -8.367 -8.2066 0.5982 -33.6079 10.1868 -48.2572 -2.1923 -43.463 -0.4931 6.85362 14.5827 -19.6618 -0.7333 -45.8593 -2.6451 -12.5864 54.169 20.4935 
